<mxfile host="app.diagrams.net" agent="Mozilla/5.0 (Windows NT 10.0; Win64; x64) AppleWebKit/537.36 (KHTML, like Gecko) Chrome/141.0.0.0 Safari/537.36" version="28.2.7">
  <diagram name="Página-1" id="jVVc1SC3lXNbXjWoV-JZ">
    <mxGraphModel dx="562" dy="701" grid="1" gridSize="10" guides="1" tooltips="1" connect="1" arrows="1" fold="1" page="1" pageScale="1" pageWidth="827" pageHeight="1169" math="0" shadow="0">
      <root>
        <mxCell id="0" />
        <mxCell id="1" parent="0" />
        <mxCell id="v9mQBCxhhB4j2sWxmRQS-3" value="" style="edgeStyle=none;curved=1;rounded=0;orthogonalLoop=1;jettySize=auto;html=1;fontSize=12;startSize=8;endSize=8;" edge="1" parent="1" source="v9mQBCxhhB4j2sWxmRQS-1" target="v9mQBCxhhB4j2sWxmRQS-2">
          <mxGeometry relative="1" as="geometry" />
        </mxCell>
        <mxCell id="v9mQBCxhhB4j2sWxmRQS-1" value="Inicio" style="ellipse;whiteSpace=wrap;html=1;aspect=fixed;fillColor=#647687;fontColor=#ffffff;strokeColor=#314354;" vertex="1" parent="1">
          <mxGeometry x="360" y="80" width="80" height="80" as="geometry" />
        </mxCell>
        <mxCell id="v9mQBCxhhB4j2sWxmRQS-5" value="" style="edgeStyle=none;curved=1;rounded=0;orthogonalLoop=1;jettySize=auto;html=1;fontSize=12;startSize=8;endSize=8;" edge="1" parent="1" source="v9mQBCxhhB4j2sWxmRQS-2">
          <mxGeometry relative="1" as="geometry">
            <mxPoint x="400" y="320" as="targetPoint" />
          </mxGeometry>
        </mxCell>
        <mxCell id="v9mQBCxhhB4j2sWxmRQS-2" value="Mostrar mensaje: &quot;Ingrese el radio del círculo: &quot;" style="shape=parallelogram;perimeter=parallelogramPerimeter;whiteSpace=wrap;html=1;fixedSize=1;fillColor=#60a917;fontColor=#ffffff;strokeColor=#2D7600;" vertex="1" parent="1">
          <mxGeometry x="310" y="210" width="180" height="60" as="geometry" />
        </mxCell>
        <mxCell id="v9mQBCxhhB4j2sWxmRQS-8" value="" style="edgeStyle=none;curved=1;rounded=0;orthogonalLoop=1;jettySize=auto;html=1;fontSize=12;startSize=8;endSize=8;" edge="1" parent="1" source="v9mQBCxhhB4j2sWxmRQS-6" target="v9mQBCxhhB4j2sWxmRQS-7">
          <mxGeometry relative="1" as="geometry" />
        </mxCell>
        <mxCell id="v9mQBCxhhB4j2sWxmRQS-6" value="Definir y asignar a la variable area el resultado de π * radio^2" style="rounded=0;whiteSpace=wrap;html=1;fillColor=#1ba1e2;fontColor=#ffffff;strokeColor=#006EAF;" vertex="1" parent="1">
          <mxGeometry x="310" y="320" width="180" height="60" as="geometry" />
        </mxCell>
        <mxCell id="v9mQBCxhhB4j2sWxmRQS-10" value="" style="edgeStyle=none;curved=1;rounded=0;orthogonalLoop=1;jettySize=auto;html=1;fontSize=12;startSize=8;endSize=8;" edge="1" parent="1" source="v9mQBCxhhB4j2sWxmRQS-7" target="v9mQBCxhhB4j2sWxmRQS-9">
          <mxGeometry relative="1" as="geometry" />
        </mxCell>
        <mxCell id="v9mQBCxhhB4j2sWxmRQS-7" value="Mostrar mensaje: &quot;El área del círculo con radio&quot;, radio, &quot;es: &quot;, area" style="shape=parallelogram;perimeter=parallelogramPerimeter;whiteSpace=wrap;html=1;fixedSize=1;rounded=0;fillColor=#60a917;fontColor=#ffffff;strokeColor=#2D7600;" vertex="1" parent="1">
          <mxGeometry x="305" y="430" width="190" height="60" as="geometry" />
        </mxCell>
        <mxCell id="v9mQBCxhhB4j2sWxmRQS-9" value="Fin" style="ellipse;whiteSpace=wrap;html=1;rounded=0;fillColor=#647687;fontColor=#ffffff;strokeColor=#314354;" vertex="1" parent="1">
          <mxGeometry x="360" y="544.5" width="80" height="80" as="geometry" />
        </mxCell>
      </root>
    </mxGraphModel>
  </diagram>
</mxfile>
